# xmcd
#
# Track frame offsets:
#	162
#	11990
#	22965
#	34405
#	59167
#	72742
#	95440
#	105027
#	115322
#	130917
#	148292
#	170555
#
# Disc length: 2562 seconds
#
# Revision: 1
# Processed by: cddbd v1.5.1PL2 Copyright (c) Steve Scherf et al.
# Submitted via: audiograbber 1.83.01
#
DISCID=b30a000c
DTITLE=Amy Grant - Home For Christmas
DYEAR=1992
DGENRE=KRISTEN JULE-CD
TTITLE0=Have Yourself A Merry Little Christmas
TTITLE1=It's The Most Wonderful Time Of The Year
TTITLE2=Joy To The World/For Unto Us A Child Is Born
TTITLE3=Breath Of Heaven (Mary's Song)
TTITLE4=O' Come All Ye Faithful
TTITLE5=Grown-Up Christmas List
TTITLE6=Rockin' Around The Christmas Tree
TTITLE7=Winter Wonderland
TTITLE8=I'll Be Home For Christmas
TTITLE9=The Night Before Christmas
TTITLE10=Emmanuel, God With Us
TTITLE11=Jesu, Joy Of Man's Desiring
EXTD=
EXTT0=
EXTT1=
EXTT2=
EXTT3=
EXTT4=
EXTT5=
EXTT6=
EXTT7=
EXTT8=
EXTT9=
EXTT10=
EXTT11=
PLAYORDER=
